HIERARCHY
ROOT Hips
{
	OFFSET 0.000000 0.000000 0.000000 
	CHANNELS 6 Xposition Yposition Zposition Zrotation Yrotation Xrotation
	JOINT LeftUpLeg
	{
		OFFSET 1.363060 -1.794630 0.839290 
		CHANNELS 3 Zrotation Yrotation Xrotation
		JOINT LeftLeg
		{
			OFFSET 2.448110 -6.726130 0.000000 
			CHANNELS 3 Zrotation Yrotation Xrotation
			JOINT LeftFoot
			{
				OFFSET 2.562200 -7.039590 0.000000 
				CHANNELS 3 Zrotation Yrotation Xrotation
				JOINT LeftToeBase
				{
					OFFSET 0.157640 -0.433110 2.322550 
					CHANNELS 3 Zrotation Yrotation Xrotation
					End Site
					{
						OFFSET 0.000000 0.000000 0.000000 
					}
				}
			}
		}
	}
	JOINT RightUpLeg
	{
		OFFSET -1.305520 -1.794630 0.839290 
		CHANNELS 3 Zrotation Yrotation Xrotation
		JOINT RightLeg
		{
			OFFSET -2.542530 -6.985550 0.000000 
			CHANNELS 3 Zrotation Yrotation Xrotation
			JOINT RightFoot
			{
				OFFSET -2.568260 -7.056230 0.000000 
				CHANNELS 3 Zrotation Yrotation Xrotation
				JOINT RightToeBase
				{
					OFFSET -0.164730 -0.452590 2.363150 
					CHANNELS 3 Zrotation Yrotation Xrotation
					End Site
					{
						OFFSET 0.000000 0.000000 0.000000 
					}
				}
			}
		}
	}
	JOINT Spine
	{
		OFFSET 0.028270 2.035590 -0.193380 
		CHANNELS 3 Zrotation Yrotation Xrotation
		JOINT Spine1
		{
			OFFSET 0.056720 2.048850 -0.042750 
			CHANNELS 3 Zrotation Yrotation Xrotation
			JOINT Neck1
			{
				OFFSET -0.054170 1.746240 0.172020 
				CHANNELS 3 Zrotation Yrotation Xrotation
				JOINT Head
				{
					OFFSET 0.104070 1.761360 -0.123970 
					CHANNELS 3 Zrotation Yrotation Xrotation
					End Site
					{
						OFFSET 0.000000 0.000000 0.000000 
					}
				}
			}
			JOINT LeftArm
			{
				OFFSET 3.362410 1.200890 -0.311210 
				CHANNELS 3 Zrotation Yrotation Xrotation
				JOINT LeftForeArm
				{
					OFFSET 4.983000 -0.000000 -0.000000 
					CHANNELS 3 Zrotation Yrotation Xrotation
					JOINT LeftHand
					{
						OFFSET 3.483560 -0.000000 -0.000000 
						CHANNELS 3 Zrotation Yrotation Xrotation
						JOINT LeftHandIndex1
						{
							OFFSET 0.715260 -0.000000 -0.000000 
							CHANNELS 3 Zrotation Yrotation Xrotation
							End Site
							{
								OFFSET 0.000000 0.000000 0.000000 
							}
						}
					}
				}
			}
			JOINT RightArm
			{
				OFFSET -3.136600 1.374050 -0.404650 
				CHANNELS 3 Zrotation Yrotation Xrotation
				JOINT RightForeArm
				{
					OFFSET -5.241900 -0.000000 -0.000000 
					CHANNELS 3 Zrotation Yrotation Xrotation
					JOINT RightHand
					{
						OFFSET -3.444170 -0.000000 -0.000000 
						CHANNELS 3 Zrotation Yrotation Xrotation
						JOINT RightHandIndex1
						{
							OFFSET -0.622530 -0.000000 -0.000000 
							CHANNELS 3 Zrotation Yrotation Xrotation
							End Site
							{
								OFFSET 0.000000 0.000000 0.000000 
							}
						}
					}
				}
			}
		}
	}
}
MOTION
Frames: 15
Frame Time: 0.041667
-0.387262 18.376411 8.579357 -8.472753 -0.399866 14.234511 -22.330785 -43.861680 20.773695 -3.798355 -2.351533 -3.253562 -14.215058 45.061152 -31.711146 0.538400 4.701500 13.059000 22.826039 25.847602 0.584794 3.541171 -0.878110 3.175142 7.591746 -24.524425 -2.962970 -0.005100 0.461000 -1.266700 14.741595 6.319261 -33.575192 -9.421557 -0.935277 -8.585670 19.400587 -16.018911 23.909617 3.613100 -6.261200 7.047500 -84.921614 14.710766 15.750715 12.837692 -14.783417 -2.454079 0.817149 1.003143 32.955372 -7.125000 0.000000 0.000000 81.366895 -19.866907 3.718958 -13.979826 18.997715 -2.876335 0.716805 1.347451 40.000264 7.125000 0.000000 0.000000 
-0.389995 18.375675 8.580829 -8.489076 -0.402133 14.290888 -22.375474 -43.992968 20.793190 -3.802977 -2.383013 -3.295937 -14.214463 45.090003 -31.860674 0.542300 4.718300 13.106700 22.719222 25.965856 0.504598 3.541742 -0.881983 3.171983 7.624307 -24.597767 -3.035397 -0.006500 0.522600 -1.436000 15.591324 6.461971 -32.934983 -9.621745 -0.991471 -8.664948 19.773463 -16.619349 24.561034 3.735600 -6.513400 7.363200 -85.088285 14.313571 16.064506 12.770299 -14.658244 -2.415809 0.649279 1.071285 31.287638 -7.125000 0.000000 0.000000 81.025806 -19.648029 3.406196 -13.832718 18.815709 -2.818673 0.727798 1.338431 40.531457 7.125000 0.000000 0.000000 
-0.392937 18.374204 8.581144 -8.509764 -0.415061 14.291055 -22.364920 -43.967604 20.706876 -3.806929 -2.406792 -3.304073 -14.196325 45.053116 -31.875299 0.544100 4.725600 13.127600 22.605673 26.060356 0.444691 3.541206 -0.884168 3.171149 7.637836 -24.616077 -3.085638 -0.005400 0.475700 -1.307100 16.551899 6.610202 -32.169972 -9.834971 -1.051050 -8.782985 20.102806 -17.302482 25.215779 3.847900 -6.816500 7.697100 -85.263514 13.910225 16.274613 12.710994 -14.551759 -2.388318 0.495913 1.149939 29.699854 -7.125000 0.000000 0.000000 80.580227 -19.304936 3.143388 -13.566743 18.483587 -2.716511 0.741762 1.319241 41.086057 7.125000 0.000000 0.000000 
-0.396721 18.371681 8.582195 -8.600234 -0.365085 14.175149 -22.281951 -43.905506 20.600472 -3.808268 -2.437844 -3.302263 -14.212388 45.014381 -31.717511 0.529900 4.664700 12.954800 22.551406 26.108915 0.444763 3.540100 -0.869665 3.153097 7.665921 -24.672104 -3.093654 -0.005400 0.476600 -1.309600 17.879860 6.750945 -30.461863 -10.201016 -1.104330 -9.027199 20.355616 -18.183705 26.238456 3.874200 -7.183300 8.214100 -85.279242 13.105893 16.678212 12.639489 -14.439762 -2.359343 0.347059 1.219559 28.123736 -7.125000 0.000000 0.000000 79.969049 -18.504074 2.738430 -13.264072 18.094576 -2.599080 0.758704 1.301075 41.666077 7.125000 0.000000 0.000000 
-0.405758 18.371576 8.591443 -8.491149 -0.257714 14.376929 -22.372382 -44.218800 20.550224 -3.807621 -2.439016 -3.322719 -14.232234 45.097990 -31.906016 0.542700 4.719800 13.111200 22.346061 26.326000 0.419294 3.552657 -0.819462 2.982489 7.796378 -25.029809 -3.200795 -0.001000 0.206500 -0.567400 18.550009 6.751014 -30.494111 -10.160368 -1.218509 -8.805082 20.680033 -18.706940 26.265460 4.031600 -7.466800 8.346700 -85.566532 13.078835 16.811876 12.666412 -14.431837 -2.365966 0.199661 1.285392 26.518386 -7.125000 0.000000 0.000000 79.552315 -18.441074 2.954172 -12.955825 17.712895 -2.494881 0.780878 1.285870 42.043462 7.125000 0.000000 0.000000 
-0.421627 18.373573 8.607942 -8.593547 -0.139721 14.536933 -22.591074 -44.794512 20.653521 -3.828019 -2.512436 -3.366795 -14.213325 45.216061 -32.597505 0.595200 4.939100 13.735000 21.936258 26.765066 0.298656 3.566353 -0.745857 2.710590 7.986355 -25.541302 -3.343431 -0.002600 -0.329700 0.905800 22.784648 6.857023 -28.192879 -10.573453 -1.743819 -9.047459 20.699907 -18.841520 26.695989 4.212500 -7.558000 8.789500 -86.745269 12.322698 15.825415 12.689483 -14.348111 -2.368980 -0.057959 1.435000 24.141424 -7.125000 0.000000 0.000000 77.953573 -17.497855 4.686108 -12.441478 17.164106 -2.338404 0.805675 1.273568 42.137689 7.125000 0.000000 0.000000 
-0.426672 18.376621 8.616455 -8.389457 -0.162256 14.727259 -22.789818 -45.101897 20.674360 -3.829281 -2.505584 -3.382935 -14.196975 45.296075 -32.937800 0.615400 5.020700 13.967600 21.668952 26.905821 0.246337 3.576239 -0.686849 2.536291 8.067846 -25.753383 -3.358309 -0.007500 -0.558100 1.533600 22.563580 6.777308 -28.441947 -10.429563 -1.752171 -8.793630 21.300585 -19.586390 26.809298 4.394200 -7.918300 8.974500 -86.784218 12.181271 15.092346 12.635299 -14.265525 -2.347995 -0.022914 1.449015 24.593760 -7.125000 0.000000 0.000000 77.694438 -17.432895 4.791667 -12.186866 16.822780 -2.254158 0.826762 1.262573 42.332107 7.125000 0.000000 0.000000 
-0.427933 18.377356 8.618452 -8.283297 -0.184824 14.801079 -22.843723 -45.166626 20.653717 -3.827313 -2.490472 -3.374982 -14.188861 45.309353 -32.999444 0.609100 4.995400 13.895500 21.596740 26.925529 0.235484 3.577932 -0.669930 2.491016 8.078629 -25.783202 -3.310386 -0.007200 -0.546100 1.500700 21.986632 6.728349 -28.815430 -10.326855 -1.697676 -8.633968 21.439523 -20.411523 26.734136 4.383100 -8.356400 9.043700 -86.658755 12.084887 14.637251 12.570182 -14.188334 -2.320843 -0.005177 1.437843 24.926079 -7.125000 0.000000 0.000000 77.699031 -17.458987 4.531241 -12.084157 16.670738 -2.217806 0.839137 1.253159 42.684100 7.125000 0.000000 0.000000 
-0.428879 18.377987 8.619923 -8.135750 -0.218175 14.903003 -22.809113 -45.171385 20.522897 -3.819792 -2.462701 -3.366484 -14.192059 45.310788 -32.934557 0.600000 4.958400 13.789800 21.557011 26.950757 0.225739 3.579713 -0.659875 2.473648 8.097302 -25.828977 -3.299142 -0.007800 -0.571100 1.569400 20.711999 6.634340 -29.464581 -10.150826 -1.556354 -8.384073 21.487167 -21.275802 26.723219 4.315000 -8.812100 9.092300 -86.322936 12.016883 14.526744 12.478064 -14.086561 -2.287903 0.009436 1.431465 25.184168 -7.125000 0.000000 0.000000 77.914571 -17.503293 3.888865 -12.015544 16.535556 -2.187668 0.847575 1.242190 43.052690 7.125000 0.000000 0.000000 
-0.429824 18.378407 8.620448 -7.882275 -0.215274 15.138243 -22.787657 -45.337537 20.463785 -3.811377 -2.404675 -3.347408 -14.148521 45.316767 -33.106508 0.614500 5.017200 13.957500 21.582406 27.024277 0.232135 3.587543 -0.652430 2.436112 8.129064 -25.928263 -3.382304 -0.010600 -0.664400 1.825700 18.037751 6.448366 -31.669399 -9.688882 -1.367604 -8.477877 21.321332 -22.087868 27.057247 4.282600 -9.270800 9.214900 -86.105855 12.774897 14.865023 12.500141 -14.152478 -2.285949 -0.004493 1.347581 25.375517 -7.125000 0.000000 0.000000 78.501205 -18.274631 3.065575 -11.976871 16.456476 -2.170009 0.850539 1.234459 43.392917 7.125000 0.000000 0.000000 
-0.427512 18.375780 8.619397 -8.187938 -0.024753 15.091152 -22.359650 -45.260833 20.409711 -3.805723 -2.399218 -3.354519 -14.138708 45.230063 -32.901456 0.608700 4.993900 13.891100 22.054788 26.919173 0.360567 3.592487 -0.629434 2.389837 8.103483 -25.913940 -3.422437 -0.011400 -0.689200 1.894100 17.829812 6.512423 -32.092785 -9.901945 -1.367391 -8.656785 21.416861 -22.621706 26.938901 4.328800 -9.579300 9.249600 -86.141517 13.061222 14.953003 12.607646 -14.311628 -2.297973 -0.046867 1.202742 25.617665 -7.125000 0.000000 0.000000 78.640310 -18.425104 2.702983 -11.926771 16.376706 -2.150732 0.855268 1.230163 43.655204 7.125000 0.000000 0.000000 
-0.425095 18.373363 8.618346 -8.522771 0.130721 14.979536 -21.856337 -44.931006 20.202388 -3.794199 -2.410712 -3.382968 -14.218065 45.169960 -32.282539 0.568100 4.827200 13.416200 22.501259 26.747216 0.475183 3.593633 -0.609262 2.363673 8.050347 -25.816877 -3.400492 -0.010600 -0.663300 1.822800 18.112367 6.600418 -31.990001 -10.208362 -1.392209 -8.731846 21.759824 -23.056751 26.629043 4.422600 -9.815800 9.236500 -86.147744 13.103934 14.807000 12.635627 -14.369194 -2.299619 -0.061973 1.147103 25.753998 -7.125000 0.000000 0.000000 78.605035 -18.316730 2.640650 -11.880771 16.302777 -2.132058 0.856448 1.225334 43.802946 7.125000 0.000000 0.000000 
-0.426356 18.374309 8.619818 -8.419440 0.114242 15.005194 -22.037173 -45.054261 20.315583 -3.794591 -2.392646 -3.353096 -14.254385 45.265619 -32.396855 0.562800 4.804800 13.352700 22.420060 26.769649 0.487551 3.595988 -0.599295 2.339033 8.060506 -25.833529 -3.428028 -0.011900 -0.703500 1.933300 17.785396 6.522054 -32.211684 -10.117955 -1.376357 -8.642694 21.854241 -23.405487 26.404031 4.432600 -10.015100 9.202500 -86.131148 13.173825 14.643498 12.611430 -14.343578 -2.293401 -0.058246 1.159292 25.761763 -7.125000 0.000000 0.000000 78.556778 -18.235516 2.740944 -11.871565 16.286261 -2.128461 0.857126 1.220907 43.809037 7.125000 0.000000 0.000000 
-0.423414 18.371787 8.620764 -8.536146 0.202481 14.958601 -22.085378 -45.187814 20.540986 -3.798140 -2.389790 -3.342185 -14.264905 45.322423 -32.563088 0.567600 4.825300 13.410800 22.584071 26.630674 0.524182 3.596834 -0.584681 2.309602 8.033224 -25.782416 -3.380772 -0.010300 -0.656700 1.804700 17.829743 6.537849 -32.243820 -10.238982 -1.385822 -8.620395 21.750447 -23.593942 26.084873 4.388200 -10.145500 9.101600 -86.152952 13.243521 14.588940 12.590889 -14.328831 -2.287383 -0.063979 1.159410 25.717790 -7.125000 0.000000 0.000000 78.532373 -18.119437 2.900157 -11.919204 16.343571 -2.143558 0.856716 1.223033 43.664925 7.125000 0.000000 0.000000 
-0.421207 18.368213 8.622550 -8.752172 0.285121 14.869571 -21.940630 -45.144263 20.661815 -3.798186 -2.409544 -3.383501 -14.305622 45.355928 -32.483068 0.560000 4.793200 13.319600 22.880603 26.522565 0.628299 3.597466 -0.569708 2.290258 8.000470 -25.722736 -3.369117 -0.009300 -0.623000 1.712100 18.026713 6.609978 -32.138585 -10.450754 -1.390572 -8.640571 21.981260 -23.751426 25.783840 4.450600 -10.234700 9.048300 -86.179708 13.333431 14.592327 12.587569 -14.340320 -2.286450 -0.056800 1.144418 25.705225 -7.125000 0.000000 0.000000 78.538569 -17.956360 2.948181 -11.976639 16.403618 -2.160423 0.856552 1.226603 43.566634 7.125000 0.000000 0.000000 
